<svg width="128" height="128" xmlns:xlink="http://www.w3.org/1999/xlink" xmlns="http://www.w3.org/2000/svg"><defs><linearGradient id="d"><stop style="stop-color:#48a6b7;stop-opacity:.40000001" offset="0"/><stop style="stop-color:#48a6b7;stop-opacity:.40000001" offset=".6"/><stop style="stop-color:#e6e6e6;stop-opacity:0" offset="1"/></linearGradient><linearGradient id="c"><stop style="stop-color:#f8fcfc;stop-opacity:0" offset="0"/><stop style="stop-color:#fff;stop-opacity:.28729364" offset=".496"/><stop style="stop-color:#fff;stop-opacity:0" offset="1"/></linearGradient><linearGradient id="b"><stop style="stop-color:#fff;stop-opacity:1" offset="0"/><stop style="stop-color:#e6e6e6;stop-opacity:1" offset="1"/></linearGradient><linearGradient id="a"><stop style="stop-color:gray;stop-opacity:1" offset="0"/><stop style="stop-color:#b3b3b3;stop-opacity:1" offset=".05"/><stop style="stop-color:gray;stop-opacity:1" offset=".1"/><stop style="stop-color:gray;stop-opacity:1" offset=".9"/><stop style="stop-color:#b3b3b3;stop-opacity:1" offset=".95"/><stop style="stop-color:gray;stop-opacity:1" offset="1"/></linearGradient><linearGradient xlink:href="#a" id="e" x1="11.5" y1="120.5" x2="116.5" y2="120.5" gradientUnits="userSpaceOnUse" gradientTransform="translate(0 -5.84)"/><linearGradient xlink:href="#b" id="f" x1="64" y1="7.5" x2="64" y2="112.5" gradientUnits="userSpaceOnUse" gradientTransform="translate(0 -1.84)"/><linearGradient xlink:href="#c" id="h" x1="57.225" y1="58.159" x2="75.912" y2="58.159" gradientUnits="userSpaceOnUse" gradientTransform="matrix(1.38685 0 0 1 -25.768 0)"/><linearGradient xlink:href="#d" id="g" gradientUnits="userSpaceOnUse" gradientTransform="translate(0 -1.84)" x1="11.5" y1="58.159" x2="87.433" y2="58.159"/></defs><g transform="matrix(1 0 0 1.0367 0 1.633)"><rect style="fill:url(#e);fill-opacity:1" width="105" height="105" x="11.5" y="9.659" rx="8" ry="8"/><rect style="fill:url(#f);fill-opacity:1" width="105" height="105" x="11.5" y="5.659" rx="8" ry="8"/><rect style="fill:#e6e6e6;fill-opacity:1;stroke-width:.968399" width="101.682" height="101.682" x="13.159" y="7.318" rx="7.747" ry="7.747"/><rect style="fill:#2a273f;fill-opacity:1;stroke-width:.873428" width="96.985" height="86.722" x="15.508" y="10.318" rx="2.528" ry="2.528"/><rect style="fill:url(#g);fill-opacity:1" width="105" height="105" x="11.5" y="5.659" rx="8" ry="8"/><g transform="translate(0 1.092)"><circle style="fill:#f6c177;fill-opacity:1;stroke-width:.542636" cx="49.706" cy="67.495" r="5.926" transform="rotate(-15)"/><path style="fill:#eb6f92;fill-opacity:1;stroke-width:1.16141" d="M62.855 66.488a11.807 8.77 75 0 0 4.322 16.129l8.151 6.46 3.83-9.67a11.807 8.77 75 0 0-4.323-16.127 11.807 8.77 75 0 0-11.98 3.208ZM78.06 59.34a11.807 8.77 3.621 0 0 16.664 1.054l8.724-5.661-7.94-6.717a11.807 8.77 3.621 0 0-16.663-1.053 11.807 8.77 3.621 0 0-.786 12.376Zm-2.712-17.497a8.77 11.807 17.744 0 0 5.089-15.904l-3.362-9.842-8.451 6.062a8.77 11.807 17.744 0 0-5.088 15.902 8.77 11.807 17.744 0 0 11.811 3.782zM58.514 39.73a11.807 8.77 35.551 0 0-13.586-9.71l-10.398.192 3.187 9.9A11.807 8.77 35.551 0 0 51.3 49.818a11.807 8.77 35.551 0 0 7.212-10.088zM51.39 55.29a8.77 11.807 52.628 0 0-13.27 10.136l-2.871 9.996 10.4-.14a8.77 11.807 52.628 0 0 13.267-10.134 8.77 11.807 52.628 0 0-7.526-9.857z"/><path style="fill:#8c4257;fill-opacity:1;stroke-width:.983178" d="M226.936 18.156v7.658h7.66v-7.658Zm0 15.319v7.634h-7.659v7.66h7.659v.022h22.978v7.637h7.658V48.77h-7.658v-7.637h-15.318v-7.658zm22.978 22.953h-7.66v7.658h7.66zm-30.637-.024v7.66h7.659v-7.66zm7.659 7.66v15.319h-7.659v7.658h15.319V64.064Z" transform="translate(-164.695 -3.108) scale(1.0591)"/><path style="fill:#eb6f92;fill-opacity:1;stroke-width:.983178" d="M219.277 18.133v22.976h7.659v-7.634h7.66v-7.66h-7.66v-7.682zm7.659 30.637v15.294h-7.659v15.319h7.659V64.086h15.318v-7.658h7.66V48.77h-15.318z" transform="translate(-164.695 -3.108) scale(1.0591)"/><path style="fill:#f6c177;fill-opacity:1;stroke-width:.983178" d="M219.277 48.769h7.659v7.659h-7.659z" transform="translate(-164.695 -3.108) scale(1.0591)"/></g><path style="opacity:1;fill:url(#h);fill-opacity:1;stroke-width:13.522" d="M53.595 5.659H79.51v105H53.595z"/><path style="opacity:1;fill:#fff;fill-opacity:1;stroke-width:3.70295" d="M65.58 5.659h1.943v105H65.58z"/></g></svg>
