<?xml version="1.0" encoding="UTF-8" standalone="no"?>
<svg
   width="256"
   height="256"
   fill="none"
   viewBox="0 0 256 256"
   version="1.1"
   id="svg4"
   sodipodi:docname="-z1Npee-vscode-dark.svg"
   inkscape:version="1.4.2 (ebf0e940d0, 2025-05-08)"
   xmlns:inkscape="http://www.inkscape.org/namespaces/inkscape"
   xmlns:sodipodi="http://sodipodi.sourceforge.net/DTD/sodipodi-0.dtd"
   xmlns="http://www.w3.org/2000/svg"
   xmlns:svg="http://www.w3.org/2000/svg">
  <defs
     id="defs4" />
  <sodipodi:namedview
     id="namedview4"
     pagecolor="#ffffff"
     bordercolor="#000000"
     borderopacity="0.25"
     inkscape:showpageshadow="2"
     inkscape:pageopacity="0.0"
     inkscape:pagecheckerboard="0"
     inkscape:deskcolor="#d1d1d1"
     inkscape:zoom="1.5214844"
     inkscape:cx="38.449293"
     inkscape:cy="73.283696"
     inkscape:window-width="1920"
     inkscape:window-height="1005"
     inkscape:window-x="0"
     inkscape:window-y="0"
     inkscape:window-maximized="1"
     inkscape:current-layer="svg4"
     guidecolor="#0086e5"
     guideopacity="0.78039216"
     showgrid="true">
    <inkscape:grid
       id="grid1"
       units="px"
       originx="0"
       originy="0"
       spacingx="1"
       spacingy="1"
       empcolor="#0099e5"
       empopacity="0.30196078"
       color="#0099e5"
       opacity="0.14901961"
       empspacing="5"
       enabled="true"
       visible="true" />
  </sodipodi:namedview>
  <g
     id="g4"
     transform="matrix(0.94264777,0,0,0.98380672,7.3677078,0.1051264)">
    <rect
       width="224.45186"
       height="215.25032"
       fill="#242938"
       rx="52.605904"
       id="rect1"
       x="15.745829"
       y="22.37484"
       style="stroke-width:0.858605" />
    <path
       fill="#2489ca"
       d="m 45.306665,106.63189 c 0,0 -4.150957,-2.86973 0.830208,-6.701271 l 11.605476,-9.952048 c 0,0 3.320748,-3.350502 6.831842,-0.431255 L 171.66973,167.30557 v 37.28708 c 0,0 -0.0518,5.85548 -7.88738,5.20804 z"
       id="path1"
       style="stroke-width:0.858605" />
    <path
       fill="#1070b3"
       d="m 72.910648,130.66593 -27.604072,24.06683 c 0,0 -2.836509,2.02386 0,5.64023 l 12.816202,11.17873 c 0,0 3.044041,3.13542 7.540881,-0.43134 l 29.26449,-21.28035 z"
       id="path2"
       style="stroke-width:0.858605" />
    <path
       fill="#0877b9"
       d="m 121.37323,130.8652 50.62529,-37.071729 -0.32879,-37.087887 c 0,0 -2.1621,-8.094336 -9.37437,-3.881316 L 94.928236,111.62385 Z"
       id="path3"
       style="stroke-width:0.858605" />
    <path
       fill="#3c99d4"
       d="m 163.78235,209.85115 c 2.94068,2.88569 6.50384,1.94061 6.50384,1.94061 l 39.4518,-18.64354 c 5.05017,-3.30106 4.34087,-7.39755 4.34087,-7.39755 V 74.420181 c 0,-4.893077 -5.22377,-6.584894 -5.22377,-6.584894 L 174.66213,52.028094 c -7.47179,-4.428607 -12.36677,0.796174 -12.36677,0.796174 0,0 6.29517,-4.345702 9.37437,3.881316 V 203.91241 c 0,1.01236 -0.22533,2.00705 -0.67423,2.90336 -0.89956,1.74134 -2.85387,3.36665 -7.54105,2.68643 z"
       id="path4"
       style="stroke-width:0.858605" />
  </g>
</svg>
